<mxfile host="app.diagrams.net" modified="2024-01-26T20:25:48.844Z" agent="Mozilla/5.0 (Windows NT 10.0; Win64; x64) AppleWebKit/537.36 (KHTML, like Gecko) Chrome/120.0.0.0 Safari/537.36" etag="bLJC0039P_i9Ck7Yb2M1" version="23.0.2" type="google">
  <diagram name="Page-1" id="bsSn3X12edA9eFdwrlWQ">
    <mxGraphModel grid="0" page="1" gridSize="10" guides="1" tooltips="1" connect="1" arrows="1" fold="1" pageScale="1" pageWidth="827" pageHeight="1169" math="0" shadow="0">
      <root>
        <mxCell id="0" />
        <mxCell id="1" parent="0" />
        <mxCell id="O1zhjtUKLN7c94TKV5NM-1" value="DB" style="rounded=0;whiteSpace=wrap;html=1;" vertex="1" parent="1">
          <mxGeometry x="236" y="323" width="120" height="60" as="geometry" />
        </mxCell>
        <mxCell id="O1zhjtUKLN7c94TKV5NM-15" style="edgeStyle=orthogonalEdgeStyle;rounded=0;orthogonalLoop=1;jettySize=auto;html=1;exitX=0.5;exitY=1;exitDx=0;exitDy=0;entryX=0.75;entryY=0;entryDx=0;entryDy=0;shape=link;" edge="1" parent="1" source="O1zhjtUKLN7c94TKV5NM-2" target="O1zhjtUKLN7c94TKV5NM-1">
          <mxGeometry relative="1" as="geometry" />
        </mxCell>
        <mxCell id="O1zhjtUKLN7c94TKV5NM-2" value="Adminer" style="whiteSpace=wrap;html=1;aspect=fixed;" vertex="1" parent="1">
          <mxGeometry x="316" y="193" width="80" height="80" as="geometry" />
        </mxCell>
        <mxCell id="O1zhjtUKLN7c94TKV5NM-10" style="edgeStyle=orthogonalEdgeStyle;rounded=0;orthogonalLoop=1;jettySize=auto;html=1;exitX=1;exitY=0.5;exitDx=0;exitDy=0;entryX=0.25;entryY=1;entryDx=0;entryDy=0;shape=link;startArrow=block;" edge="1" parent="1" source="O1zhjtUKLN7c94TKV5NM-3" target="O1zhjtUKLN7c94TKV5NM-1">
          <mxGeometry relative="1" as="geometry" />
        </mxCell>
        <mxCell id="O1zhjtUKLN7c94TKV5NM-14" style="edgeStyle=orthogonalEdgeStyle;rounded=0;orthogonalLoop=1;jettySize=auto;html=1;exitX=0;exitY=0.5;exitDx=0;exitDy=0;" edge="1" parent="1" source="O1zhjtUKLN7c94TKV5NM-3" target="O1zhjtUKLN7c94TKV5NM-13">
          <mxGeometry relative="1" as="geometry" />
        </mxCell>
        <mxCell id="O1zhjtUKLN7c94TKV5NM-3" value="Admin-container" style="rounded=0;whiteSpace=wrap;html=1;" vertex="1" parent="1">
          <mxGeometry x="116" y="443" width="120" height="60" as="geometry" />
        </mxCell>
        <mxCell id="O1zhjtUKLN7c94TKV5NM-8" style="edgeStyle=orthogonalEdgeStyle;rounded=0;orthogonalLoop=1;jettySize=auto;html=1;exitX=0;exitY=0.5;exitDx=0;exitDy=0;entryX=0.75;entryY=1;entryDx=0;entryDy=0;shape=link;startArrow=block;" edge="1" parent="1" source="O1zhjtUKLN7c94TKV5NM-4" target="O1zhjtUKLN7c94TKV5NM-1">
          <mxGeometry relative="1" as="geometry" />
        </mxCell>
        <mxCell id="O1zhjtUKLN7c94TKV5NM-12" style="edgeStyle=orthogonalEdgeStyle;rounded=0;orthogonalLoop=1;jettySize=auto;html=1;exitX=1;exitY=0.5;exitDx=0;exitDy=0;entryX=0.5;entryY=1;entryDx=0;entryDy=0;" edge="1" parent="1" source="O1zhjtUKLN7c94TKV5NM-4" target="O1zhjtUKLN7c94TKV5NM-11">
          <mxGeometry relative="1" as="geometry" />
        </mxCell>
        <mxCell id="O1zhjtUKLN7c94TKV5NM-4" value="Web-Client" style="rounded=0;whiteSpace=wrap;html=1;" vertex="1" parent="1">
          <mxGeometry x="356" y="443" width="120" height="60" as="geometry" />
        </mxCell>
        <mxCell id="O1zhjtUKLN7c94TKV5NM-5" value="db_data" style="shape=hexagon;perimeter=hexagonPerimeter2;whiteSpace=wrap;html=1;fixedSize=1;" vertex="1" parent="1">
          <mxGeometry x="156" y="193" width="120" height="80" as="geometry" />
        </mxCell>
        <mxCell id="O1zhjtUKLN7c94TKV5NM-6" style="edgeStyle=orthogonalEdgeStyle;rounded=0;orthogonalLoop=1;jettySize=auto;html=1;entryX=0.5;entryY=1;entryDx=0;entryDy=0;exitX=0.306;exitY=-0.015;exitDx=0;exitDy=0;exitPerimeter=0;" edge="1" parent="1" source="O1zhjtUKLN7c94TKV5NM-1" target="O1zhjtUKLN7c94TKV5NM-5">
          <mxGeometry relative="1" as="geometry">
            <mxPoint x="296" y="323" as="sourcePoint" />
          </mxGeometry>
        </mxCell>
        <mxCell id="O1zhjtUKLN7c94TKV5NM-11" value="Cache page" style="shape=hexagon;perimeter=hexagonPerimeter2;whiteSpace=wrap;html=1;fixedSize=1;dashed=1;" vertex="1" parent="1">
          <mxGeometry x="450" y="323" width="120" height="80" as="geometry" />
        </mxCell>
        <mxCell id="O1zhjtUKLN7c94TKV5NM-13" value="- Plugin&lt;br&gt;- Template" style="shape=hexagon;perimeter=hexagonPerimeter2;whiteSpace=wrap;html=1;fixedSize=1;" vertex="1" parent="1">
          <mxGeometry x="26" y="323" width="120" height="80" as="geometry" />
        </mxCell>
        <mxCell id="O1zhjtUKLN7c94TKV5NM-17" style="edgeStyle=orthogonalEdgeStyle;rounded=0;orthogonalLoop=1;jettySize=auto;html=1;exitX=0.5;exitY=1;exitDx=0;exitDy=0;" edge="1" parent="1" source="O1zhjtUKLN7c94TKV5NM-3" target="O1zhjtUKLN7c94TKV5NM-3">
          <mxGeometry relative="1" as="geometry" />
        </mxCell>
      </root>
    </mxGraphModel>
  </diagram>
</mxfile>
